name Walk9.mot
datacolumns 19
datarows 17
range 1.46000000 1.54000000
endheader

                time	   L_ground_force_vx	   L_ground_force_vy	   L_ground_force_vz	   L_ground_force_px	   L_ground_force_py	   L_ground_force_pz	   R_ground_force_vx	   R_ground_force_vy	   R_ground_force_vz	   R_ground_force_px	   R_ground_force_py	   R_ground_force_pz	   L_ground_torque_x	   L_ground_torque_y	   L_ground_torque_z	   R_ground_torque_x	   R_ground_torque_y	   R_ground_torque_z	
          1.46000000	         22.25777169	        559.49699338	         41.63616551	         -0.31383003	          0.00000000	         -0.09946800	         -0.00410500	          0.23708492	          0.01333154	          0.00013559	          0.00000000	          0.00005914	          0.00000000	         -0.54100340	          0.00000000	          0.00000000	         -0.00020934	          0.00000000	
          1.46500000	         24.73489834	        567.86363562	         42.07680062	         -0.31323650	          0.00000000	         -0.09929911	         -0.01119045	          0.30862745	          0.01460806	          0.00016832	          0.00000000	          0.00007292	          0.00000000	         -0.57413163	          0.00000000	          0.00000000	         -0.00022825	          0.00000000	
          1.47000000	         27.36857335	        576.53832385	         42.62233631	         -0.31264722	          0.00000000	         -0.09912379	         -0.02085925	          0.38212698	          0.01479705	          0.00019860	          0.00000000	          0.00008540	          0.00000000	         -0.60208607	          0.00000000	          0.00000000	         -0.00022960	          0.00000000	
          1.47500000	         30.15785486	        585.49373943	         43.28636090	         -0.31206182	          0.00000000	         -0.09894584	         -0.03336406	          0.44961367	          0.01326686	          0.00022133	          0.00000000	          0.00009433	          0.00000000	         -0.62425144	          0.00000000	          0.00000000	         -0.00020338	          0.00000000	
          1.48000000	         33.09732876	        594.69555924	         44.07589035	         -0.31147914	          0.00000000	         -0.09876933	         -0.04874907	          0.49940106	          0.00924454	          0.00022947	          0.00000000	          0.00009663	          0.00000000	         -0.64009310	          0.00000000	          0.00000000	         -0.00013741	          0.00000000	
          1.48500000	         36.17829690	        604.09926106	         44.99006484	         -0.31089689	          0.00000000	         -0.09859726	         -0.06672803	          0.51544833	          0.00183211	          0.00021386	          0.00000000	          0.00008829	          0.00000000	         -0.64926692	          0.00000000	          0.00000000	         -0.00001759	          0.00000000	
          1.49000000	         39.39038509	        613.64729193	         46.01966232	         -0.31031143	          0.00000000	         -0.09842966	         -0.08653460	          0.47690286	         -0.00995264	          0.00016315	          0.00000000	          0.00006440	          0.00000000	         -0.65179912	          0.00000000	          0.00000000	          0.00017142	          0.00000000	
          1.49500000	         42.72243093	        623.26665696	         47.14636248	         -0.30971834	          0.00000000	         -0.09826339	         -0.10674842	          0.35798033	         -0.02710209	          0.00006395	          0.00000000	          0.00001921	          0.00000000	         -0.64809555	          0.00000000	          0.00000000	          0.00044502	          0.00000000	
          1.50000000	         46.16289380	        632.86806928	         48.34262428	         -0.30911426	          0.00000000	         -0.09809415	         -0.12510436	          0.12838592	         -0.05050216	         -0.00009863	          0.00000000	         -0.00005363	          0.00000000	         -0.63887512	          0.00000000	          0.00000000	          0.00081678	          0.00000000	
          1.50500000	         49.70254279	        642.34576581	         49.57308783	         -0.30849702	          0.00000000	         -0.09791873	         -0.13829937	         -0.24547254	         -0.08076341	         -0.00033998	          0.00000000	         -0.00016060	          0.00000000	         -0.62506777	          0.00000000	          0.00000000	          0.00129577	          0.00000000	
          1.51000000	         53.33594634	        651.57805230	         50.79607667	         -0.30786615	          0.00000000	         -0.09773600	         -0.14181920	         -0.79818617	         -0.11799179	         -0.00067441	          0.00000000	         -0.00030761	          0.00000000	         -0.60764950	          0.00000000	          0.00000000	          0.00188288	          0.00000000	
          1.51500000	         57.05967213	        660.42829564	         51.96795871	         -0.30722263	          0.00000000	         -0.09754760	         -0.12981766	         -1.56163783	         -0.16149328	         -0.00111274	          0.00000000	         -0.00049891	          0.00000000	         -0.58740715	          0.00000000	          0.00000000	          0.00256621	          0.00000000	
          1.52000000	         60.86973661	        668.75097614	         53.04859248	         -0.30656768	          0.00000000	         -0.09735599	         -0.09509254	         -2.55955506	         -0.20941196	         -0.00165903	          0.00000000	         -0.00073570	          0.00000000	         -0.56487774	          0.00000000	          0.00000000	          0.00331528	          0.00000000	
          1.52500000	         64.76142156	        676.39558385	         54.00410783	         -0.30590250	          0.00000000	         -0.09716148	         -0.02921532	         -3.80002192	         -0.25830900	         -0.00230631	          0.00000000	         -0.00101420	          0.00000000	         -0.54040578	          0.00000000	          0.00000000	          0.00407451	          0.00000000	
          1.53000000	         68.72978411	        683.20822745	         54.80935758	         -0.30522805	          0.00000000	         -0.09696281	          0.07711536	         -5.26573137	         -0.30270130	         -0.00303122	          0.00000000	         -0.00132341	          0.00000000	         -0.51389045	          0.00000000	          0.00000000	          0.00475594	          0.00000000	
          1.53500000	         72.76933591	        689.03254139	         55.44955265	         -0.30454520	          0.00000000	         -0.09675963	          0.23341478	         -6.90191641	         -0.33459418	         -0.00378780	          0.00000000	         -0.00164238	          0.00000000	         -0.48488004	          0.00000000	          0.00000000	          0.00523199	          0.00000000	
          1.54000000	         76.87326638	        693.71230375	         55.91935938	         -0.30385406	          0.00000000	         -0.09655251	          0.44835831	         -8.60215007	         -0.34306244	         -0.00450046	          0.00000000	         -0.00193721	          0.00000000	         -0.45284284	          0.00000000	          0.00000000	          0.00532910	          0.00000000	
